<svg width="1200" height="600" viewBox="0 0 1200 600" fill="none" xmlns="http://www.w3.org/2000/svg">
<g clip-path="url(#clip0_805_30)">
<rect width="1200" height="600" fill="white"/>
<g clip-path="url(#clip1_805_30)">
<rect width="600" height="600" transform="translate(600)" fill="#4B4453"/>
<circle cx="900" cy="300" r="262.5" fill="#4B4453" stroke="#FBEAFF" stroke-width="75"/>
<path d="M1003.05 365.938C1002.14 380.26 999.01 393.151 993.672 404.609C988.464 416.068 981.432 425.833 972.578 433.906C963.724 441.979 953.177 448.229 940.938 452.656C928.698 456.953 915.156 459.102 900.312 459.102C888.594 459.102 877.721 457.604 867.695 454.609C857.799 451.484 848.88 447.057 840.938 441.328C833.646 435.99 827.135 429.544 821.406 421.992C815.807 414.44 811.055 406.107 807.148 396.992C803.372 387.878 800.443 377.852 798.359 366.914C796.406 355.977 795.43 344.388 795.43 332.148V293.867C795.43 282.409 796.341 271.536 798.164 261.25C799.987 250.833 802.721 241.198 806.367 232.344C810.534 221.536 816.003 211.901 822.773 203.438C829.544 194.974 837.227 187.812 845.82 181.953C853.503 177.005 861.901 173.229 871.016 170.625C880.26 167.891 890.156 166.523 900.703 166.523C916.328 166.523 930.195 168.737 942.305 173.164C954.544 177.591 964.961 183.906 973.555 192.109C982.148 200.312 988.919 210.339 993.867 222.188C998.815 234.036 1001.94 247.383 1003.24 262.227H948.555C948.034 253.763 946.732 246.341 944.648 239.961C942.695 233.581 939.831 228.242 936.055 223.945C932.148 219.779 927.266 216.654 921.406 214.57C915.677 212.357 908.776 211.25 900.703 211.25C896.406 211.25 892.37 211.706 888.594 212.617C884.948 213.529 881.562 214.896 878.438 216.719C873.099 219.844 868.542 224.336 864.766 230.195C861.12 235.924 858.19 242.63 855.977 250.312C854.284 256.302 853.047 262.943 852.266 270.234C851.484 277.396 851.094 285.143 851.094 293.477V332.148C851.094 343.477 851.68 353.633 852.852 362.617C854.154 371.471 856.107 379.219 858.711 385.859C860.534 390.417 862.682 394.453 865.156 397.969C867.76 401.484 870.69 404.414 873.945 406.758C877.461 409.362 881.367 411.315 885.664 412.617C890.091 413.789 894.974 414.375 900.312 414.375C907.474 414.375 913.919 413.464 919.648 411.641C925.378 409.818 930.26 406.953 934.297 403.047C938.333 399.141 941.523 394.128 943.867 388.008C946.211 381.888 947.643 374.531 948.164 365.938H1003.05Z" fill="#FBEAFF"/>
</g>
<g clip-path="url(#clip2_805_30)">
<rect width="600" height="600" fill="#FBEAFF"/>
<circle cx="300" cy="300" r="262.5" fill="#FBEAFF" stroke="#4B4453" stroke-width="75"/>
<path d="M353.242 380.781C353.242 375.703 352.331 370.951 350.508 366.523C348.815 362.096 345.885 357.93 341.719 354.023C337.422 350.247 331.823 346.797 324.922 343.672C318.151 340.417 309.688 337.422 299.531 334.688C283.776 330.391 269.909 325.182 257.93 319.062C246.081 312.943 236.38 306.237 228.828 298.945C221.276 291.654 215.547 283.581 211.641 274.727C207.865 265.872 205.977 256.237 205.977 245.82C205.977 233.841 208.516 222.969 213.594 213.203C218.672 203.438 225.703 195.104 234.688 188.203C243.672 181.302 254.284 176.029 266.523 172.383C278.763 168.607 292.044 166.719 306.367 166.719C321.211 166.719 334.753 168.867 346.992 173.164C359.362 177.461 369.974 183.451 378.828 191.133C387.682 198.945 394.583 208.19 399.531 218.867C404.479 229.544 406.953 241.263 406.953 254.023H353.438C353.177 247.643 352.005 241.784 349.922 236.445C347.969 231.107 345.039 226.484 341.133 222.578C337.096 218.802 332.083 215.872 326.094 213.789C320.234 211.576 313.333 210.469 305.391 210.469C298.099 210.469 291.589 211.38 285.859 213.203C280.26 214.896 275.508 217.305 271.602 220.43C267.695 223.685 264.701 227.526 262.617 231.953C260.664 236.25 259.688 240.938 259.688 246.016C259.688 251.354 260.99 256.172 263.594 260.469C266.328 264.766 270.234 268.607 275.312 271.992C280.391 275.508 286.51 278.698 293.672 281.562C300.964 284.427 309.167 287.096 318.281 289.57C328.047 292.305 337.357 295.625 346.211 299.531C355.065 303.438 363.203 307.93 370.625 313.008C381.823 321.341 390.742 331.042 397.383 342.109C404.023 353.177 407.344 365.938 407.344 380.391C407.344 392.891 404.805 404.023 399.727 413.789C394.779 423.424 387.878 431.562 379.023 438.203C370.169 444.974 359.622 450.117 347.383 453.633C335.143 457.018 321.797 458.711 307.344 458.711C293.151 458.711 279.089 456.628 265.156 452.461C251.354 448.164 239.31 441.914 229.023 433.711C219.258 425.638 211.51 416.133 205.781 405.195C200.182 394.258 197.383 381.432 197.383 366.719H251.289C251.549 375.312 253.047 382.669 255.781 388.789C258.516 394.909 262.357 399.922 267.305 403.828C272.122 407.734 277.917 410.599 284.688 412.422C291.589 414.245 299.141 415.156 307.344 415.156C314.635 415.156 321.081 414.31 326.68 412.617C332.409 410.924 337.227 408.581 341.133 405.586C345.039 402.591 348.034 399.01 350.117 394.844C352.201 390.547 353.242 385.859 353.242 380.781Z" fill="#4B4453"/>
</g>
</g>
<defs>
<clipPath id="clip0_805_30">
<rect width="1200" height="600" fill="white"/>
</clipPath>
<clipPath id="clip1_805_30">
<rect width="600" height="600" fill="white" transform="translate(600)"/>
</clipPath>
<clipPath id="clip2_805_30">
<rect width="600" height="600" fill="white"/>
</clipPath>
</defs>
</svg>
